<?xml version="1.0" encoding="utf-8"?>
<!-- Generator: Adobe Illustrator 21.0.0, SVG Export Plug-In . SVG Version: 6.00 Build 0)  -->
<svg version="1.1" xmlns="http://www.w3.org/2000/svg" xmlns:xlink="http://www.w3.org/1999/xlink" x="0px" y="0px"
	 viewBox="0 0 595.275 566.93" enable-background="new 0 0 595.275 566.93" xml:space="preserve">
<filter  filterUnits="objectBoundingBox" id="AI_Shadow_1">
	<feGaussianBlur  in="SourceAlpha" result="blur" stdDeviation="1"></feGaussianBlur>
	<feOffset  dx="0" dy="0" in="blur" result="offsetBlurredAlpha"></feOffset>
	<feMerge>
		<feMergeNode  in="offsetBlurredAlpha"></feMergeNode>
		<feMergeNode  in="SourceGraphic"></feMergeNode>
	</feMerge>
</filter>
<g id="Fond" display="none">
	<rect display="inline" fill="#222629" stroke="#222629" stroke-miterlimit="10" width="594.444" height="567.585"/>
</g>
<g id="Button">
	<g id="Flag_frame">
		<defs>
			<ellipse id="Mask_1_" cx="297.637" cy="283.464" rx="228.735" ry="216.373"/>
		</defs>
		<clipPath id="Mask_2_">
			<use xlink:href="#Mask_1_"  overflow="visible"/>
		</clipPath>
		<g clip-path="url(#Mask_2_)">
			<defs>
				<rect id="SVGID_1_" x="68.903" y="66.986" width="228.735" height="432.956"/>
			</defs>
			<clipPath id="SVGID_2_">
				<use xlink:href="#SVGID_1_"  overflow="visible"/>
			</clipPath>
			<g id="US__x2A_" clip-path="url(#SVGID_2_)">
				<g>
					<defs>
						<rect id="SVGID_3_" x="-40.554" y="77.125" width="708.415" height="413.252"/>
					</defs>
					<clipPath id="SVGID_4_">
						<use xlink:href="#SVGID_3_"  overflow="visible"/>
					</clipPath>
					<rect x="-40.554" y="458.582" clip-path="url(#SVGID_4_)" fill="#D61F28" width="708.415" height="31.795"/>
					<rect x="-40.554" y="426.789" clip-path="url(#SVGID_4_)" fill="#FFFFFF" width="708.415" height="31.793"/>
					<rect x="-40.554" y="395.018" clip-path="url(#SVGID_4_)" fill="#D61F28" width="708.415" height="31.771"/>
					<rect x="-40.554" y="363.225" clip-path="url(#SVGID_4_)" fill="#FFFFFF" width="708.415" height="31.794"/>
					<rect x="-40.554" y="331.432" clip-path="url(#SVGID_4_)" fill="#D61F28" width="708.415" height="31.793"/>
					<rect x="-40.554" y="299.658" clip-path="url(#SVGID_4_)" fill="#FFFFFF" width="708.415" height="31.773"/>
					<rect x="-40.554" y="267.865" clip-path="url(#SVGID_4_)" fill="#D61F28" width="708.415" height="31.793"/>
					<rect x="-40.554" y="236.07" clip-path="url(#SVGID_4_)" fill="#FFFFFF" width="708.415" height="31.772"/>
					<rect x="-40.554" y="204.277" clip-path="url(#SVGID_4_)" fill="#D61F28" width="708.415" height="31.793"/>
					<rect x="-40.554" y="172.483" clip-path="url(#SVGID_4_)" fill="#FFFFFF" width="708.415" height="31.794"/>
					<rect x="-40.554" y="140.689" clip-path="url(#SVGID_4_)" fill="#D61F28" width="708.415" height="31.794"/>
					<rect x="-40.554" y="108.919" clip-path="url(#SVGID_4_)" fill="#FFFFFF" width="708.415" height="31.77"/>
					<rect x="-40.554" y="77.125" clip-path="url(#SVGID_4_)" fill="#D61F28" width="708.415" height="31.794"/>
					<rect x="-40.554" y="77.125" clip-path="url(#SVGID_4_)" fill="#263375" width="323.436" height="222.533"/>
					<polygon clip-path="url(#SVGID_4_)" fill="#FFFFFF" points="-11.391,101.641 -8.643,110.07 0.186,110.07 -6.965,115.26 
						-4.228,123.666 -11.391,118.452 -18.541,123.666 -15.805,115.26 -22.955,110.07 -14.114,110.07 					"/>
					<polygon clip-path="url(#SVGID_4_)" fill="#FFFFFF" points="-11.391,138.788 -8.643,147.193 0.186,147.193 -6.965,152.385 
						-4.228,160.812 -11.391,155.6 -18.541,160.812 -15.805,152.385 -22.955,147.193 -14.114,147.193 					"/>
					<polygon clip-path="url(#SVGID_4_)" fill="#FFFFFF" points="-11.391,175.936 -8.643,184.342 0.186,184.342 -6.965,189.531 
						-4.228,197.961 -11.391,192.748 -18.541,197.961 -15.805,189.531 -22.955,184.342 -14.114,184.342 					"/>
					<polygon clip-path="url(#SVGID_4_)" fill="#FFFFFF" points="-11.391,213.083 -8.643,221.49 0.186,221.49 -6.965,226.703 
						-4.228,235.086 -11.391,229.896 -18.541,235.086 -15.805,226.703 -22.955,221.49 -14.114,221.49 					"/>
					<polygon clip-path="url(#SVGID_4_)" fill="#FFFFFF" points="-11.391,250.23 -8.643,258.637 0.186,258.637 -6.965,263.828 
						-4.228,272.233 -11.391,267.043 -18.541,272.233 -15.805,263.828 -22.955,258.637 -14.114,258.637 					"/>
					<polygon clip-path="url(#SVGID_4_)" fill="#FFFFFF" points="14.486,121.225 17.209,129.629 26.063,129.629 18.9,134.819 
						21.636,143.227 14.486,138.035 7.325,143.227 10.061,134.819 2.91,129.629 11.75,129.629 					"/>
					<polygon clip-path="url(#SVGID_4_)" fill="#FFFFFF" points="14.486,158.371 17.209,166.754 26.063,166.754 18.9,171.967 
						21.636,180.374 14.486,175.184 7.325,180.374 10.061,171.967 2.91,166.754 11.75,166.754 					"/>
					<polygon clip-path="url(#SVGID_4_)" fill="#FFFFFF" points="14.486,195.496 17.209,203.902 26.063,203.902 18.9,209.114 
						21.636,217.521 14.486,212.332 7.325,217.521 10.061,209.114 2.91,203.902 11.75,203.902 					"/>
					<polygon clip-path="url(#SVGID_4_)" fill="#FFFFFF" points="14.486,232.642 17.209,241.051 26.063,241.051 18.9,246.262 
						21.636,254.646 14.486,249.457 7.325,254.646 10.061,246.262 2.91,241.051 11.75,241.051 					"/>
					<polygon clip-path="url(#SVGID_4_)" fill="#FFFFFF" points="40.691,101.641 43.415,110.07 52.256,110.07 45.105,115.26 
						47.831,123.666 40.691,118.452 33.53,123.666 36.253,115.26 29.115,110.07 37.944,110.07 					"/>
					<polygon clip-path="url(#SVGID_4_)" fill="#FFFFFF" points="40.691,138.788 43.415,147.193 52.256,147.193 45.105,152.385 
						47.831,160.812 40.691,155.6 33.53,160.812 36.253,152.385 29.115,147.193 37.944,147.193 					"/>
					<polygon clip-path="url(#SVGID_4_)" fill="#FFFFFF" points="40.691,175.936 43.415,184.342 52.256,184.342 45.105,189.531 
						47.831,197.961 40.691,192.748 33.53,197.961 36.253,189.531 29.115,184.342 37.944,184.342 					"/>
					<polygon clip-path="url(#SVGID_4_)" fill="#FFFFFF" points="40.691,213.083 43.415,221.49 52.256,221.49 45.105,226.703 
						47.831,235.086 40.691,229.896 33.53,235.086 36.253,226.703 29.115,221.49 37.944,221.49 					"/>
					<polygon clip-path="url(#SVGID_4_)" fill="#FFFFFF" points="40.691,250.23 43.415,258.637 52.256,258.637 45.105,263.828 
						47.831,272.233 40.691,267.043 33.53,272.233 36.253,263.828 29.115,258.637 37.944,258.637 					"/>
					<polygon clip-path="url(#SVGID_4_)" fill="#FFFFFF" points="66.544,121.225 69.292,129.629 78.122,129.629 70.982,134.819 
						73.706,143.227 66.544,138.035 59.395,143.227 62.129,134.819 54.981,129.629 63.82,129.629 					"/>
					<polygon clip-path="url(#SVGID_4_)" fill="#FFFFFF" points="66.544,158.371 69.292,166.754 78.122,166.754 70.982,171.967 
						73.706,180.374 66.544,175.184 59.395,180.374 62.129,171.967 54.981,166.754 63.82,166.754 					"/>
					<polygon clip-path="url(#SVGID_4_)" fill="#FFFFFF" points="66.544,195.496 69.292,203.902 78.122,203.902 70.982,209.114 
						73.706,217.521 66.544,212.332 59.395,217.521 62.129,209.114 54.981,203.902 63.82,203.902 					"/>
					<polygon clip-path="url(#SVGID_4_)" fill="#FFFFFF" points="66.544,232.642 69.292,241.051 78.122,241.051 70.982,246.262 
						73.706,254.646 66.544,249.457 59.395,254.646 62.129,246.262 54.981,241.051 63.82,241.051 					"/>
					<polygon clip-path="url(#SVGID_4_)" fill="#FFFFFF" points="92.749,101.641 95.486,110.07 104.327,110.07 97.165,115.26 
						99.9,123.666 92.749,118.452 85.588,123.666 88.335,115.26 81.173,110.07 90.026,110.07 					"/>
					<polygon clip-path="url(#SVGID_4_)" fill="#FFFFFF" points="92.749,138.788 95.486,147.193 104.327,147.193 97.165,152.385 
						99.9,160.812 92.749,155.6 85.588,160.812 88.335,152.385 81.173,147.193 90.026,147.193 					"/>
					<polygon clip-path="url(#SVGID_4_)" fill="#FFFFFF" points="92.749,175.936 95.486,184.342 104.327,184.342 97.165,189.531 
						99.9,197.961 92.749,192.748 85.588,197.961 88.335,189.531 81.173,184.342 90.026,184.342 					"/>
					<polygon clip-path="url(#SVGID_4_)" fill="#FFFFFF" points="92.749,213.083 95.486,221.49 104.327,221.49 97.165,226.703 
						99.9,235.086 92.749,229.896 85.588,235.086 88.335,226.703 81.173,221.49 90.026,221.49 					"/>
					<polygon clip-path="url(#SVGID_4_)" fill="#FFFFFF" points="92.749,250.23 95.486,258.637 104.327,258.637 97.165,263.828 
						99.9,272.233 92.749,267.043 85.588,272.233 88.335,263.828 81.173,258.637 90.026,258.637 					"/>
					<polygon clip-path="url(#SVGID_4_)" fill="#FFFFFF" points="118.627,121.225 121.351,129.629 130.191,129.629 123.041,134.819 
						125.766,143.227 118.627,138.035 111.465,143.227 114.188,134.819 107.05,129.629 115.88,129.629 					"/>
					<polygon clip-path="url(#SVGID_4_)" fill="#FFFFFF" points="118.627,158.371 121.351,166.754 130.191,166.754 123.041,171.967 
						125.766,180.374 118.627,175.184 111.465,180.374 114.188,171.967 107.05,166.754 115.88,166.754 					"/>
					<polygon clip-path="url(#SVGID_4_)" fill="#FFFFFF" points="118.627,195.496 121.351,203.902 130.191,203.902 123.041,209.114 
						125.766,217.521 118.627,212.332 111.465,217.521 114.188,209.114 107.05,203.902 115.88,203.902 					"/>
					<polygon clip-path="url(#SVGID_4_)" fill="#FFFFFF" points="118.627,232.642 121.351,241.051 130.191,241.051 123.041,246.262 
						125.766,254.646 118.627,249.457 111.465,254.646 114.188,246.262 107.05,241.051 115.88,241.051 					"/>
					<polygon clip-path="url(#SVGID_4_)" fill="#FFFFFF" points="144.821,101.641 147.557,110.07 156.396,110.07 149.246,115.26 
						151.971,123.666 144.821,118.452 137.67,123.666 140.405,115.26 133.255,110.07 142.085,110.07 					"/>
					<polygon clip-path="url(#SVGID_4_)" fill="#FFFFFF" points="144.821,138.788 147.557,147.193 156.396,147.193 149.246,152.385 
						151.971,160.812 144.821,155.6 137.67,160.812 140.405,152.385 133.255,147.193 142.085,147.193 					"/>
					<polygon clip-path="url(#SVGID_4_)" fill="#FFFFFF" points="144.821,175.936 147.557,184.342 156.396,184.342 149.246,189.531 
						151.971,197.961 144.821,192.748 137.67,197.961 140.405,189.531 133.255,184.342 142.085,184.342 					"/>
					<polygon clip-path="url(#SVGID_4_)" fill="#FFFFFF" points="144.821,213.083 147.557,221.49 156.396,221.49 149.246,226.703 
						151.971,235.086 144.821,229.896 137.67,235.086 140.405,226.703 133.255,221.49 142.085,221.49 					"/>
					<polygon clip-path="url(#SVGID_4_)" fill="#FFFFFF" points="144.821,250.23 147.557,258.637 156.396,258.637 149.246,263.828 
						151.971,272.233 144.821,267.043 137.67,272.233 140.405,263.828 133.255,258.637 142.085,258.637 					"/>
					<polygon clip-path="url(#SVGID_4_)" fill="#FFFFFF" points="170.686,121.225 173.42,129.629 182.262,129.629 175.111,134.819 
						177.848,143.227 170.686,138.035 163.524,143.227 166.27,134.819 159.109,129.629 167.961,129.629 					"/>
					<polygon clip-path="url(#SVGID_4_)" fill="#FFFFFF" points="170.686,158.371 173.42,166.754 182.262,166.754 175.111,171.967 
						177.848,180.374 170.686,175.184 163.524,180.374 166.27,171.967 159.109,166.754 167.961,166.754 					"/>
					<polygon clip-path="url(#SVGID_4_)" fill="#FFFFFF" points="170.686,195.496 173.42,203.902 182.262,203.902 175.111,209.114 
						177.848,217.521 170.686,212.332 163.524,217.521 166.27,209.114 159.109,203.902 167.961,203.902 					"/>
					<polygon clip-path="url(#SVGID_4_)" fill="#FFFFFF" points="170.686,232.642 173.42,241.051 182.262,241.051 175.111,246.262 
						177.848,254.646 170.686,249.457 163.524,254.646 166.27,246.262 159.109,241.051 167.961,241.051 					"/>
					<polygon clip-path="url(#SVGID_4_)" fill="#FFFFFF" points="196.891,101.641 199.626,110.07 208.467,110.07 201.316,115.26 
						204.04,123.666 196.891,118.452 189.74,123.666 192.464,115.26 185.314,110.07 194.155,110.07 					"/>
					<polygon clip-path="url(#SVGID_4_)" fill="#FFFFFF" points="196.891,138.788 199.626,147.193 208.467,147.193 201.316,152.385 
						204.04,160.812 196.891,155.6 189.74,160.812 192.464,152.385 185.314,147.193 194.155,147.193 					"/>
					<polygon clip-path="url(#SVGID_4_)" fill="#FFFFFF" points="196.891,175.936 199.626,184.342 208.467,184.342 201.316,189.531 
						204.04,197.961 196.891,192.748 189.74,197.961 192.464,189.531 185.314,184.342 194.155,184.342 					"/>
					<polygon clip-path="url(#SVGID_4_)" fill="#FFFFFF" points="196.891,213.083 199.626,221.49 208.467,221.49 201.316,226.703 
						204.04,235.086 196.891,229.896 189.74,235.086 192.464,226.703 185.314,221.49 194.155,221.49 					"/>
					<polygon clip-path="url(#SVGID_4_)" fill="#FFFFFF" points="196.891,250.23 199.626,258.637 208.467,258.637 201.316,263.828 
						204.04,272.233 196.891,267.043 189.74,272.233 192.464,263.828 185.314,258.637 194.155,258.637 					"/>
					<polygon clip-path="url(#SVGID_4_)" fill="#FFFFFF" points="222.755,121.225 225.49,129.629 234.331,129.629 227.181,134.819 
						229.906,143.227 222.755,138.035 215.606,143.227 218.341,134.819 211.19,129.629 220.02,129.629 					"/>
					<polygon clip-path="url(#SVGID_4_)" fill="#FFFFFF" points="222.755,158.371 225.49,166.754 234.331,166.754 227.181,171.967 
						229.906,180.374 222.755,175.184 215.606,180.374 218.341,171.967 211.19,166.754 220.02,166.754 					"/>
					<polygon clip-path="url(#SVGID_4_)" fill="#FFFFFF" points="222.755,195.496 225.49,203.902 234.331,203.902 227.181,209.114 
						229.906,217.521 222.755,212.332 215.606,217.521 218.341,209.114 211.19,203.902 220.02,203.902 					"/>
					<polygon clip-path="url(#SVGID_4_)" fill="#FFFFFF" points="222.755,232.642 225.49,241.051 234.331,241.051 227.181,246.262 
						229.906,254.646 222.755,249.457 215.606,254.646 218.341,246.262 211.19,241.051 220.02,241.051 					"/>
					<polygon clip-path="url(#SVGID_4_)" fill="#FFFFFF" points="248.949,101.641 251.696,110.07 260.525,110.07 253.388,115.26 
						256.11,123.666 248.949,118.452 241.799,123.666 244.534,115.26 237.385,110.07 246.226,110.07 					"/>
					<polygon clip-path="url(#SVGID_4_)" fill="#FFFFFF" points="248.949,138.788 251.696,147.193 260.525,147.193 253.388,152.385 
						256.11,160.812 248.949,155.6 241.799,160.812 244.534,152.385 237.385,147.193 246.226,147.193 					"/>
					<polygon clip-path="url(#SVGID_4_)" fill="#FFFFFF" points="248.949,175.936 251.696,184.342 260.525,184.342 253.388,189.531 
						256.11,197.961 248.949,192.748 241.799,197.961 244.534,189.531 237.385,184.342 246.226,184.342 					"/>
					<polygon clip-path="url(#SVGID_4_)" fill="#FFFFFF" points="248.949,213.083 251.696,221.49 260.525,221.49 253.388,226.703 
						256.11,235.086 248.949,229.896 241.799,235.086 244.534,226.703 237.385,221.49 246.226,221.49 					"/>
					<polygon clip-path="url(#SVGID_4_)" fill="#FFFFFF" points="248.949,250.23 251.696,258.637 260.525,258.637 253.388,263.828 
						256.11,272.233 248.949,267.043 241.799,272.233 244.534,263.828 237.385,258.637 246.226,258.637 					"/>
				</g>
			</g>
		</g>
	</g>
	<g>
		<defs>
			<path id="SVGID_5_" d="M68.351,283.674c0,119.501,102.408,216.374,228.734,216.374c126.33,0,228.735-96.873,228.735-216.374
				c0-119.498-102.405-216.372-228.735-216.372C170.759,67.302,68.351,164.176,68.351,283.674"/>
		</defs>
		<clipPath id="SVGID_6_">
			<use xlink:href="#SVGID_5_"  overflow="visible"/>
		</clipPath>
		<g clip-path="url(#SVGID_6_)">
			<defs>
				<rect id="SVGID_7_" x="297.086" y="66.986" width="228.735" height="432.956"/>
			</defs>
			<clipPath id="SVGID_8_">
				<use xlink:href="#SVGID_7_"  overflow="visible"/>
			</clipPath>
			<g clip-path="url(#SVGID_8_)">
				<rect x="-118.516" y="39.92" fill="#D61F28" width="195.175" height="483.99"/>
				<rect x="515.988" y="39.92" fill="#D61F28" width="195.174" height="483.99"/>
				<rect x="76.658" y="39.92" fill="#FFFFFF" width="439.329" height="483.99"/>
				<path fill="#D61F28" d="M296.31,102.678l-28.767,55.908c-3.273,6.078-9.13,5.528-14.974,2.119l-20.832-11.249l15.539,85.913
					c3.259,15.676-7.234,15.676-12.39,8.911l-36.357-42.407l-5.898,21.506c-0.688,2.86-3.685,5.83-8.168,5.115l-45.981-10.066
					l12.086,45.735c2.585,10.175,4.593,14.41-2.613,17.078l-16.376,8.003l79.133,66.993c3.122,2.558,4.717,7.095,3.589,11.219
					l-6.93,23.68c27.255-3.273,51.702-6.187,78.929-9.462c2.42-0.026,6.449,2.119,6.435,5.032l-3.63,86.767h13.255l-2.091-86.601
					c-0.012-2.887,3.632-5.224,6.051-5.198c27.254,3.275,51.675,6.189,78.928,9.462l-6.931-23.68
					c-1.113-4.124,0.469-8.661,3.604-11.219l79.147-66.993l-16.391-8.003c-7.218-2.668-5.197-6.903-2.612-17.078l12.074-45.735
					l-45.968,10.066c-4.497,0.715-7.495-2.255-8.156-5.115l-5.911-21.506l-36.356,42.407c-5.171,6.765-15.649,6.765-12.376-8.911
					l15.51-85.913l-20.818,11.249c-5.858,3.409-11.716,3.959-14.959-2.119L296.31,102.678z"/>
			</g>
		</g>
	</g>
</g>
<g id="IVAO_Logo" filter="url(#AI_Shadow_1)">
	<g>
		<path fill="#FFFFFF" stroke="#52504D" d="M59.91,283.678c0.004-122.91,106.18-222.519,237.17-222.531
			c130.995,0.012,237.175,99.621,237.183,222.531C534.254,406.58,428.075,506.189,297.08,506.201
			C166.089,506.189,59.914,406.58,59.91,283.678 M143.933,139.986c-39.221,36.816-63.422,87.535-63.434,143.691
			c0.012,56.152,24.213,106.871,63.434,143.688c39.236,36.789,93.299,59.512,153.146,59.52
			c59.858-0.008,113.913-22.73,153.151-59.52c39.219-36.816,63.43-87.535,63.438-143.688
			c-0.008-56.156-24.219-106.875-63.438-143.691c-39.238-36.797-93.293-59.516-153.151-59.52
			C237.232,80.471,183.169,103.189,143.933,139.986"/>
		<path fill="#FFFFFF" stroke="#52504D" d="M503.567,268.627l-1.52,4.074l-56.004-4.602c0,0-3.684-3.223-6.434-3.305
			c-2.754-0.09-4.906,2.594-4.906,2.594l-47.637-7.773c0,0-2.59-4.906-8.438-5.098c-5.848-0.199-5.941,2.555-5.941,2.555
			c-53.09-9.324-54.297-14.535-54.297-14.535s-0.559-5.617-0.559-15.027c0-35.5-13.996-55.512-20.853-55.684
			c-6.854-0.168-20.764,19.949-20.764,54.98c0,9.406-0.639,15.73-0.639,15.73s-1.203,5.211-54.295,14.535
			c0,0-0.094-2.754-5.943-2.555c-5.846,0.191-8.441,5.098-8.441,5.098l-47.633,7.773c0,0-2.154-2.684-4.91-2.594
			c-2.746,0.086-6.43,3.305-6.43,3.305l-56.004,4.602l-1.514-4.082c0,0-0.717,9.672,4.104,9.516
			c4.811-0.16,49.609,0.082,49.609,0.082s0.105,3.102,1.193,4.789c1.084,1.684,6.42,6.676,7.451,6.637
			c1.033-0.031,5.738-3.625,5.738-3.625l2.141,2.34l9.84-0.324c0,0,0.504,1.621,1.68,1.586c1.195-0.035,1.139-1.652,1.139-1.652
			l22.307-0.73c0,0,0.234,2.957,2.074,2.898c1.828-0.062,1.871-3.027,1.871-3.027l6.355-0.211c0,0,0.494,2.098,1.629,2.062
			c1.121-0.039,2.463-2.203,2.406-3.895c-0.051-1.699-0.088-6.922-0.088-6.922l3.674-0.121c0,0,0.207,1.977,1.334,1.941
			c1.135-0.035,2.178-2.477,2.178-2.477l10.873-0.359l0.066,2.109l-5.787,0.195c0,0-1.305,3.148-1.191,6.68
			c0.119,3.527-0.742,7.516,3.371,7.949c4.113,0.43,31.848,1.492,31.848,1.492l0.199,6.207l-28.719,3.496l0.055,1.406
			c0,0,20.256,1.453,32.109,1.062c11.861-0.395,27.105-0.891,27.105-0.891s6.344,7.98,10.008,7.863
			c3.677,0.117,10.017-7.863,10.017-7.863s15.242,0.496,27.098,0.891c11.863,0.391,32.117-1.062,32.117-1.062l0.043-1.406
			l-28.711-3.496l0.199-6.211c0,0,27.73-1.059,31.852-1.488c4.109-0.434,3.25-4.422,3.371-7.949c0.105-3.531-1.188-6.68-1.188-6.68
			l-5.797-0.188l0.066-2.113l10.875,0.355c0,0,1.047,2.441,2.176,2.477c1.125,0.035,1.336-1.941,1.336-1.941l3.672,0.121
			c0,0-0.035,5.223-0.086,6.922c-0.062,1.699,1.285,3.859,2.41,3.895c1.137,0.035,1.621-2.062,1.621-2.062l6.359,0.211
			c0,0,0.039,2.965,1.867,3.027c1.844,0.059,2.078-2.898,2.078-2.898l22.309,0.734c0,0-0.062,1.605,1.129,1.648
			c1.184,0.035,1.695-1.586,1.695-1.586l9.832,0.324l2.145-2.34c0,0,4.707,3.594,5.73,3.625c1.039,0.039,6.371-4.953,7.461-6.637
			c1.086-1.688,1.188-4.789,1.188-4.789s44.797-0.242,49.617-0.082C504.278,278.291,503.567,268.627,503.567,268.627
			 M278.234,294.685c0.08,2.402,0.164,5.082-0.398,5.102l-7.477,0.246c-2.545,0.082-3.57-0.875-3.598-1.863
			c-0.037-1.129,1.777-1.75,3.758-1.816c1.973-0.062,3.799-0.41,3.773-1.117c-0.016-0.707-0.195-5.93-0.195-5.93
			c-0.08-2.531,3.047-2.074,3.629-1.523C278.308,288.318,278.158,292.287,278.234,294.685 M323.614,300.033
			c-2.543-0.086-6.918-0.23-7.484-0.246c-0.57-0.02-0.473-2.699-0.395-5.102c0.078-2.398-0.074-6.367,0.504-6.902
			c0.586-0.551,3.707-1.008,3.625,1.523c0,0-0.168,5.223-0.191,5.93c-0.023,0.711,1.801,1.055,3.781,1.117
			c1.973,0.066,3.789,0.688,3.754,1.816C327.18,299.158,326.153,300.115,323.614,300.033"/>
		<g>
			<path fill="#FFFFFF" stroke="#52504D" d="M123.878,379.672v-48.67h18.016v48.67H123.878z"/>
			<path fill="#FFFFFF" stroke="#52504D" d="M203.013,379.672l-31.894-48.67h19.538l22.581,36.022l21.851-36.022h19.112
				l-31.955,48.67H203.013z"/>
			<path fill="#FFFFFF" stroke="#52504D" d="M365.046,379.672h-19.599l-7.791-11.056H301.99l-7.364,11.056h-19.112l34.754-48.67
				h19.051L365.046,379.672z M331.875,360.416l-12.294-18.061l-12.052,18.061H331.875z"/>
			<path fill="#FFFFFF" stroke="#52504D" d="M392.141,355.636c0-4.958,1.359-9.118,4.078-12.483
				c2.028-2.478,4.798-4.702,8.308-6.673c3.51-1.97,7.355-3.431,11.534-4.382c5.559-1.283,11.97-1.926,19.233-1.926
				c13.147,0,23.666,2.225,31.559,6.673c7.892,4.449,11.839,10.636,11.839,18.559c0,7.857-3.917,14.005-11.747,18.442
				c-7.832,4.438-18.301,6.656-31.406,6.656c-13.27,0-23.819-2.208-31.65-6.623C396.056,369.463,392.141,363.383,392.141,355.636z
				 M410.705,355.304c0,5.511,2.333,9.688,7,12.532c4.666,2.845,10.591,4.267,17.772,4.267c7.183,0,13.076-1.411,17.682-4.233
				c4.604-2.821,6.908-7.055,6.908-12.698c0-5.577-2.242-9.738-6.726-12.483c-4.484-2.744-10.439-4.116-17.864-4.116
				c-7.426,0-13.411,1.389-17.955,4.166C412.977,345.516,410.705,349.704,410.705,355.304z"/>
		</g>
	</g>
</g>
</svg>
